M48
; DRILL file {KiCad (5.1.12)-1} date 12/23/21 01:29:14
; FORMAT={-:-/ absolute / inch / decimal}
; #@! TF.CreationDate,2021-12-23T01:29:14-05:00
; #@! TF.GenerationSoftware,Kicad,Pcbnew,(5.1.12)-1
; #@! TF.FileFunction,Plated,1,2,PTH
FMAT,2
INCH
T1C0.0150
T2C0.0217
T3C0.0300
T4C0.0315
T5C0.0354
T6C0.0461
T7C0.0591
%
G90
G05
T1
X3.38Y-4.45
T2
X3.15Y-4.85
X3.15Y-4.9
X3.15Y-4.95
T3
X2.65Y-4.9
X2.65Y-5.2
X2.75Y-4.9
X2.75Y-5.2
X2.85Y-4.9
X2.85Y-5.2
X2.95Y-4.9
X2.95Y-5.2
T4
X2.84Y-4.33
X2.84Y-4.63
X2.99Y-4.33
X2.99Y-4.63
X3.14Y-4.33
X3.14Y-4.63
X3.15Y-5.1
X3.15Y-5.1787
X3.29Y-4.33
X3.29Y-4.63
X3.3Y-4.85
X3.4Y-5.05
X3.4Y-5.1484
X3.44Y-4.33
X3.44Y-4.63
X3.58Y-4.33
X3.58Y-4.63
X3.6Y-4.85
T5
X2.65Y-4.4031
X2.65Y-4.5016
X2.65Y-4.6
X3.8Y-4.3
X3.8Y-4.4
X3.8Y-5.11
X3.8Y-5.21
T6
X2.07Y-5.1
T7
X2.07Y-4.3126
T0
M30
