%TF.GenerationSoftware,KiCad,Pcbnew,(5.1.12)-1*%
%TF.CreationDate,2021-12-23T01:28:27-05:00*%
%TF.ProjectId,555_Badge,3535355f-4261-4646-9765-2e6b69636164,v01*%
%TF.SameCoordinates,Original*%
%TF.FileFunction,Legend,Bot*%
%TF.FilePolarity,Positive*%
%FSLAX46Y46*%
G04 Gerber Fmt 4.6, Leading zero omitted, Abs format (unit mm)*
G04 Created by KiCad (PCBNEW (5.1.12)-1) date 2021-12-23 01:28:27*
%MOMM*%
%LPD*%
G01*
G04 APERTURE LIST*
%ADD10C,0.150000*%
G04 APERTURE END LIST*
D10*
X64927333Y-119007380D02*
X64927333Y-118007380D01*
X64546380Y-118007380D01*
X64451142Y-118055000D01*
X64403523Y-118102619D01*
X64355904Y-118197857D01*
X64355904Y-118340714D01*
X64403523Y-118435952D01*
X64451142Y-118483571D01*
X64546380Y-118531190D01*
X64927333Y-118531190D01*
X63355904Y-118912142D02*
X63403523Y-118959761D01*
X63546380Y-119007380D01*
X63641619Y-119007380D01*
X63784476Y-118959761D01*
X63879714Y-118864523D01*
X63927333Y-118769285D01*
X63974952Y-118578809D01*
X63974952Y-118435952D01*
X63927333Y-118245476D01*
X63879714Y-118150238D01*
X63784476Y-118055000D01*
X63641619Y-118007380D01*
X63546380Y-118007380D01*
X63403523Y-118055000D01*
X63355904Y-118102619D01*
X62594000Y-118483571D02*
X62451142Y-118531190D01*
X62403523Y-118578809D01*
X62355904Y-118674047D01*
X62355904Y-118816904D01*
X62403523Y-118912142D01*
X62451142Y-118959761D01*
X62546380Y-119007380D01*
X62927333Y-119007380D01*
X62927333Y-118007380D01*
X62594000Y-118007380D01*
X62498761Y-118055000D01*
X62451142Y-118102619D01*
X62403523Y-118197857D01*
X62403523Y-118293095D01*
X62451142Y-118388333D01*
X62498761Y-118435952D01*
X62594000Y-118483571D01*
X62927333Y-118483571D01*
X61165428Y-119007380D02*
X61165428Y-118007380D01*
X60927333Y-118007380D01*
X60784476Y-118055000D01*
X60689238Y-118150238D01*
X60641619Y-118245476D01*
X60594000Y-118435952D01*
X60594000Y-118578809D01*
X60641619Y-118769285D01*
X60689238Y-118864523D01*
X60784476Y-118959761D01*
X60927333Y-119007380D01*
X61165428Y-119007380D01*
X59784476Y-118959761D02*
X59879714Y-119007380D01*
X60070190Y-119007380D01*
X60165428Y-118959761D01*
X60213047Y-118864523D01*
X60213047Y-118483571D01*
X60165428Y-118388333D01*
X60070190Y-118340714D01*
X59879714Y-118340714D01*
X59784476Y-118388333D01*
X59736857Y-118483571D01*
X59736857Y-118578809D01*
X60213047Y-118674047D01*
X59355904Y-118959761D02*
X59260666Y-119007380D01*
X59070190Y-119007380D01*
X58974952Y-118959761D01*
X58927333Y-118864523D01*
X58927333Y-118816904D01*
X58974952Y-118721666D01*
X59070190Y-118674047D01*
X59213047Y-118674047D01*
X59308285Y-118626428D01*
X59355904Y-118531190D01*
X59355904Y-118483571D01*
X59308285Y-118388333D01*
X59213047Y-118340714D01*
X59070190Y-118340714D01*
X58974952Y-118388333D01*
X58498761Y-119007380D02*
X58498761Y-118340714D01*
X58498761Y-118007380D02*
X58546380Y-118055000D01*
X58498761Y-118102619D01*
X58451142Y-118055000D01*
X58498761Y-118007380D01*
X58498761Y-118102619D01*
X57594000Y-118340714D02*
X57594000Y-119150238D01*
X57641619Y-119245476D01*
X57689238Y-119293095D01*
X57784476Y-119340714D01*
X57927333Y-119340714D01*
X58022571Y-119293095D01*
X57594000Y-118959761D02*
X57689238Y-119007380D01*
X57879714Y-119007380D01*
X57974952Y-118959761D01*
X58022571Y-118912142D01*
X58070190Y-118816904D01*
X58070190Y-118531190D01*
X58022571Y-118435952D01*
X57974952Y-118388333D01*
X57879714Y-118340714D01*
X57689238Y-118340714D01*
X57594000Y-118388333D01*
X57117809Y-118340714D02*
X57117809Y-119007380D01*
X57117809Y-118435952D02*
X57070190Y-118388333D01*
X56974952Y-118340714D01*
X56832095Y-118340714D01*
X56736857Y-118388333D01*
X56689238Y-118483571D01*
X56689238Y-119007380D01*
X55451142Y-119007380D02*
X55451142Y-118007380D01*
X55451142Y-118388333D02*
X55355904Y-118340714D01*
X55165428Y-118340714D01*
X55070190Y-118388333D01*
X55022571Y-118435952D01*
X54974952Y-118531190D01*
X54974952Y-118816904D01*
X55022571Y-118912142D01*
X55070190Y-118959761D01*
X55165428Y-119007380D01*
X55355904Y-119007380D01*
X55451142Y-118959761D01*
X54641619Y-118340714D02*
X54403523Y-119007380D01*
X54165428Y-118340714D02*
X54403523Y-119007380D01*
X54498761Y-119245476D01*
X54546380Y-119293095D01*
X54641619Y-119340714D01*
X53022571Y-119007380D02*
X53022571Y-118007380D01*
X52689238Y-118721666D01*
X52355904Y-118007380D01*
X52355904Y-119007380D01*
X51879714Y-119007380D02*
X51879714Y-118340714D01*
X51879714Y-118007380D02*
X51927333Y-118055000D01*
X51879714Y-118102619D01*
X51832095Y-118055000D01*
X51879714Y-118007380D01*
X51879714Y-118102619D01*
X50974952Y-118959761D02*
X51070190Y-119007380D01*
X51260666Y-119007380D01*
X51355904Y-118959761D01*
X51403523Y-118912142D01*
X51451142Y-118816904D01*
X51451142Y-118531190D01*
X51403523Y-118435952D01*
X51355904Y-118388333D01*
X51260666Y-118340714D01*
X51070190Y-118340714D01*
X50974952Y-118388333D01*
X50546380Y-119007380D02*
X50546380Y-118007380D01*
X50117809Y-119007380D02*
X50117809Y-118483571D01*
X50165428Y-118388333D01*
X50260666Y-118340714D01*
X50403523Y-118340714D01*
X50498761Y-118388333D01*
X50546380Y-118435952D01*
X49213047Y-119007380D02*
X49213047Y-118483571D01*
X49260666Y-118388333D01*
X49355904Y-118340714D01*
X49546380Y-118340714D01*
X49641619Y-118388333D01*
X49213047Y-118959761D02*
X49308285Y-119007380D01*
X49546380Y-119007380D01*
X49641619Y-118959761D01*
X49689238Y-118864523D01*
X49689238Y-118769285D01*
X49641619Y-118674047D01*
X49546380Y-118626428D01*
X49308285Y-118626428D01*
X49213047Y-118578809D01*
X48355904Y-118959761D02*
X48451142Y-119007380D01*
X48641619Y-119007380D01*
X48736857Y-118959761D01*
X48784476Y-118864523D01*
X48784476Y-118483571D01*
X48736857Y-118388333D01*
X48641619Y-118340714D01*
X48451142Y-118340714D01*
X48355904Y-118388333D01*
X48308285Y-118483571D01*
X48308285Y-118578809D01*
X48784476Y-118674047D01*
X47736857Y-119007380D02*
X47832095Y-118959761D01*
X47879714Y-118864523D01*
X47879714Y-118007380D01*
X46594000Y-119007380D02*
X46594000Y-118007380D01*
X46213047Y-118007380D01*
X46117809Y-118055000D01*
X46070190Y-118102619D01*
X46022571Y-118197857D01*
X46022571Y-118340714D01*
X46070190Y-118435952D01*
X46117809Y-118483571D01*
X46213047Y-118531190D01*
X46594000Y-118531190D01*
X45594000Y-119007380D02*
X45594000Y-118340714D01*
X45594000Y-118531190D02*
X45546380Y-118435952D01*
X45498761Y-118388333D01*
X45403523Y-118340714D01*
X45308285Y-118340714D01*
X44832095Y-119007380D02*
X44927333Y-118959761D01*
X44974952Y-118912142D01*
X45022571Y-118816904D01*
X45022571Y-118531190D01*
X44974952Y-118435952D01*
X44927333Y-118388333D01*
X44832095Y-118340714D01*
X44689238Y-118340714D01*
X44594000Y-118388333D01*
X44546380Y-118435952D01*
X44498761Y-118531190D01*
X44498761Y-118816904D01*
X44546380Y-118912142D01*
X44594000Y-118959761D01*
X44689238Y-119007380D01*
X44832095Y-119007380D01*
X44070190Y-119007380D02*
X44070190Y-118007380D01*
X44070190Y-118388333D02*
X43974952Y-118340714D01*
X43784476Y-118340714D01*
X43689238Y-118388333D01*
X43641619Y-118435952D01*
X43594000Y-118531190D01*
X43594000Y-118816904D01*
X43641619Y-118912142D01*
X43689238Y-118959761D01*
X43784476Y-119007380D01*
X43974952Y-119007380D01*
X44070190Y-118959761D01*
X43213047Y-118959761D02*
X43117809Y-119007380D01*
X42927333Y-119007380D01*
X42832095Y-118959761D01*
X42784476Y-118864523D01*
X42784476Y-118816904D01*
X42832095Y-118721666D01*
X42927333Y-118674047D01*
X43070190Y-118674047D01*
X43165428Y-118626428D01*
X43213047Y-118531190D01*
X43213047Y-118483571D01*
X43165428Y-118388333D01*
X43070190Y-118340714D01*
X42927333Y-118340714D01*
X42832095Y-118388333D01*
X42498761Y-118340714D02*
X42117809Y-118340714D01*
X42355904Y-118007380D02*
X42355904Y-118864523D01*
X42308285Y-118959761D01*
X42213047Y-119007380D01*
X42117809Y-119007380D01*
X57689238Y-120657380D02*
X58260666Y-120657380D01*
X57974952Y-120657380D02*
X57974952Y-119657380D01*
X58070190Y-119800238D01*
X58165428Y-119895476D01*
X58260666Y-119943095D01*
X57308285Y-119752619D02*
X57260666Y-119705000D01*
X57165428Y-119657380D01*
X56927333Y-119657380D01*
X56832095Y-119705000D01*
X56784476Y-119752619D01*
X56736857Y-119847857D01*
X56736857Y-119943095D01*
X56784476Y-120085952D01*
X57355904Y-120657380D01*
X56736857Y-120657380D01*
X55594000Y-119609761D02*
X56451142Y-120895476D01*
X55308285Y-119752619D02*
X55260666Y-119705000D01*
X55165428Y-119657380D01*
X54927333Y-119657380D01*
X54832095Y-119705000D01*
X54784476Y-119752619D01*
X54736857Y-119847857D01*
X54736857Y-119943095D01*
X54784476Y-120085952D01*
X55355904Y-120657380D01*
X54736857Y-120657380D01*
X54403523Y-119657380D02*
X53784476Y-119657380D01*
X54117809Y-120038333D01*
X53974952Y-120038333D01*
X53879714Y-120085952D01*
X53832095Y-120133571D01*
X53784476Y-120228809D01*
X53784476Y-120466904D01*
X53832095Y-120562142D01*
X53879714Y-120609761D01*
X53974952Y-120657380D01*
X54260666Y-120657380D01*
X54355904Y-120609761D01*
X54403523Y-120562142D01*
X52641619Y-119609761D02*
X53498761Y-120895476D01*
X52355904Y-119752619D02*
X52308285Y-119705000D01*
X52213047Y-119657380D01*
X51974952Y-119657380D01*
X51879714Y-119705000D01*
X51832095Y-119752619D01*
X51784476Y-119847857D01*
X51784476Y-119943095D01*
X51832095Y-120085952D01*
X52403523Y-120657380D01*
X51784476Y-120657380D01*
X51165428Y-119657380D02*
X51070190Y-119657380D01*
X50974952Y-119705000D01*
X50927333Y-119752619D01*
X50879714Y-119847857D01*
X50832095Y-120038333D01*
X50832095Y-120276428D01*
X50879714Y-120466904D01*
X50927333Y-120562142D01*
X50974952Y-120609761D01*
X51070190Y-120657380D01*
X51165428Y-120657380D01*
X51260666Y-120609761D01*
X51308285Y-120562142D01*
X51355904Y-120466904D01*
X51403523Y-120276428D01*
X51403523Y-120038333D01*
X51355904Y-119847857D01*
X51308285Y-119752619D01*
X51260666Y-119705000D01*
X51165428Y-119657380D01*
X50451142Y-119752619D02*
X50403523Y-119705000D01*
X50308285Y-119657380D01*
X50070190Y-119657380D01*
X49974952Y-119705000D01*
X49927333Y-119752619D01*
X49879714Y-119847857D01*
X49879714Y-119943095D01*
X49927333Y-120085952D01*
X50498761Y-120657380D01*
X49879714Y-120657380D01*
X48927333Y-120657380D02*
X49498761Y-120657380D01*
X49213047Y-120657380D02*
X49213047Y-119657380D01*
X49308285Y-119800238D01*
X49403523Y-119895476D01*
X49498761Y-119943095D01*
M02*
