%TF.GenerationSoftware,KiCad,Pcbnew,(5.1.12)-1*%
%TF.CreationDate,2021-12-23T01:28:27-05:00*%
%TF.ProjectId,555_Badge,3535355f-4261-4646-9765-2e6b69636164,v01*%
%TF.SameCoordinates,Original*%
%TF.FileFunction,Legend,Top*%
%TF.FilePolarity,Positive*%
%FSLAX46Y46*%
G04 Gerber Fmt 4.6, Leading zero omitted, Abs format (unit mm)*
G04 Created by KiCad (PCBNEW (5.1.12)-1) date 2021-12-23 01:28:27*
%MOMM*%
%LPD*%
G01*
G04 APERTURE LIST*
%ADD10C,0.150000*%
%ADD11C,0.120000*%
%ADD12C,0.100000*%
%ADD13C,0.406400*%
%ADD14C,0.203200*%
G04 APERTURE END LIST*
D10*
X44752380Y-111687428D02*
X46687619Y-111687428D01*
X45720000Y-112655047D02*
X45720000Y-110719809D01*
D11*
%TO.C,R1*%
X70766000Y-117062000D02*
X71096000Y-117062000D01*
X70766000Y-110522000D02*
X70766000Y-117062000D01*
X71096000Y-110522000D02*
X70766000Y-110522000D01*
X73506000Y-117062000D02*
X73176000Y-117062000D01*
X73506000Y-110522000D02*
X73506000Y-117062000D01*
X73176000Y-110522000D02*
X73506000Y-110522000D01*
D12*
%TO.C,BAT1*%
X63804800Y-122072400D02*
G75*
G03*
X63804800Y-122072400I-11226800J0D01*
G01*
X48666400Y-111506000D02*
X48666400Y-108762800D01*
X56489600Y-111506000D02*
X56489600Y-108762800D01*
X48666400Y-108762800D02*
X51511200Y-108762800D01*
X56489600Y-108762800D02*
X53644800Y-108762800D01*
D11*
%TO.C,C1*%
X81735000Y-127985225D02*
X81235000Y-127985225D01*
X81485000Y-127735225D02*
X81485000Y-128235225D01*
X80294000Y-133141000D02*
X79726000Y-133141000D01*
X80528000Y-133101000D02*
X79492000Y-133101000D01*
X80687000Y-133061000D02*
X79333000Y-133061000D01*
X80815000Y-133021000D02*
X79205000Y-133021000D01*
X80925000Y-132981000D02*
X79095000Y-132981000D01*
X81021000Y-132941000D02*
X78999000Y-132941000D01*
X81108000Y-132901000D02*
X78912000Y-132901000D01*
X81188000Y-132861000D02*
X78832000Y-132861000D01*
X81261000Y-132821000D02*
X78759000Y-132821000D01*
X81329000Y-132781000D02*
X78691000Y-132781000D01*
X81393000Y-132741000D02*
X78627000Y-132741000D01*
X81453000Y-132701000D02*
X78567000Y-132701000D01*
X81510000Y-132661000D02*
X78510000Y-132661000D01*
X81564000Y-132621000D02*
X78456000Y-132621000D01*
X81615000Y-132581000D02*
X78405000Y-132581000D01*
X78970000Y-132541000D02*
X78357000Y-132541000D01*
X81663000Y-132541000D02*
X81050000Y-132541000D01*
X78970000Y-132501000D02*
X78311000Y-132501000D01*
X81709000Y-132501000D02*
X81050000Y-132501000D01*
X78970000Y-132461000D02*
X78267000Y-132461000D01*
X81753000Y-132461000D02*
X81050000Y-132461000D01*
X78970000Y-132421000D02*
X78225000Y-132421000D01*
X81795000Y-132421000D02*
X81050000Y-132421000D01*
X78970000Y-132381000D02*
X78184000Y-132381000D01*
X81836000Y-132381000D02*
X81050000Y-132381000D01*
X78970000Y-132341000D02*
X78146000Y-132341000D01*
X81874000Y-132341000D02*
X81050000Y-132341000D01*
X78970000Y-132301000D02*
X78109000Y-132301000D01*
X81911000Y-132301000D02*
X81050000Y-132301000D01*
X78970000Y-132261000D02*
X78073000Y-132261000D01*
X81947000Y-132261000D02*
X81050000Y-132261000D01*
X78970000Y-132221000D02*
X78039000Y-132221000D01*
X81981000Y-132221000D02*
X81050000Y-132221000D01*
X78970000Y-132181000D02*
X78006000Y-132181000D01*
X82014000Y-132181000D02*
X81050000Y-132181000D01*
X78970000Y-132141000D02*
X77975000Y-132141000D01*
X82045000Y-132141000D02*
X81050000Y-132141000D01*
X78970000Y-132101000D02*
X77945000Y-132101000D01*
X82075000Y-132101000D02*
X81050000Y-132101000D01*
X78970000Y-132061000D02*
X77915000Y-132061000D01*
X82105000Y-132061000D02*
X81050000Y-132061000D01*
X78970000Y-132021000D02*
X77888000Y-132021000D01*
X82132000Y-132021000D02*
X81050000Y-132021000D01*
X78970000Y-131981000D02*
X77861000Y-131981000D01*
X82159000Y-131981000D02*
X81050000Y-131981000D01*
X78970000Y-131941000D02*
X77835000Y-131941000D01*
X82185000Y-131941000D02*
X81050000Y-131941000D01*
X78970000Y-131901000D02*
X77810000Y-131901000D01*
X82210000Y-131901000D02*
X81050000Y-131901000D01*
X78970000Y-131861000D02*
X77786000Y-131861000D01*
X82234000Y-131861000D02*
X81050000Y-131861000D01*
X78970000Y-131821000D02*
X77763000Y-131821000D01*
X82257000Y-131821000D02*
X81050000Y-131821000D01*
X78970000Y-131781000D02*
X77742000Y-131781000D01*
X82278000Y-131781000D02*
X81050000Y-131781000D01*
X78970000Y-131741000D02*
X77720000Y-131741000D01*
X82300000Y-131741000D02*
X81050000Y-131741000D01*
X78970000Y-131701000D02*
X77700000Y-131701000D01*
X82320000Y-131701000D02*
X81050000Y-131701000D01*
X78970000Y-131661000D02*
X77681000Y-131661000D01*
X82339000Y-131661000D02*
X81050000Y-131661000D01*
X78970000Y-131621000D02*
X77662000Y-131621000D01*
X82358000Y-131621000D02*
X81050000Y-131621000D01*
X78970000Y-131581000D02*
X77645000Y-131581000D01*
X82375000Y-131581000D02*
X81050000Y-131581000D01*
X78970000Y-131541000D02*
X77628000Y-131541000D01*
X82392000Y-131541000D02*
X81050000Y-131541000D01*
X78970000Y-131501000D02*
X77612000Y-131501000D01*
X82408000Y-131501000D02*
X81050000Y-131501000D01*
X78970000Y-131461000D02*
X77596000Y-131461000D01*
X82424000Y-131461000D02*
X81050000Y-131461000D01*
X78970000Y-131421000D02*
X77582000Y-131421000D01*
X82438000Y-131421000D02*
X81050000Y-131421000D01*
X78970000Y-131381000D02*
X77568000Y-131381000D01*
X82452000Y-131381000D02*
X81050000Y-131381000D01*
X78970000Y-131341000D02*
X77555000Y-131341000D01*
X82465000Y-131341000D02*
X81050000Y-131341000D01*
X78970000Y-131301000D02*
X77542000Y-131301000D01*
X82478000Y-131301000D02*
X81050000Y-131301000D01*
X78970000Y-131261000D02*
X77530000Y-131261000D01*
X82490000Y-131261000D02*
X81050000Y-131261000D01*
X78970000Y-131220000D02*
X77519000Y-131220000D01*
X82501000Y-131220000D02*
X81050000Y-131220000D01*
X78970000Y-131180000D02*
X77509000Y-131180000D01*
X82511000Y-131180000D02*
X81050000Y-131180000D01*
X78970000Y-131140000D02*
X77499000Y-131140000D01*
X82521000Y-131140000D02*
X81050000Y-131140000D01*
X78970000Y-131100000D02*
X77490000Y-131100000D01*
X82530000Y-131100000D02*
X81050000Y-131100000D01*
X78970000Y-131060000D02*
X77482000Y-131060000D01*
X82538000Y-131060000D02*
X81050000Y-131060000D01*
X78970000Y-131020000D02*
X77474000Y-131020000D01*
X82546000Y-131020000D02*
X81050000Y-131020000D01*
X78970000Y-130980000D02*
X77467000Y-130980000D01*
X82553000Y-130980000D02*
X81050000Y-130980000D01*
X78970000Y-130940000D02*
X77460000Y-130940000D01*
X82560000Y-130940000D02*
X81050000Y-130940000D01*
X78970000Y-130900000D02*
X77454000Y-130900000D01*
X82566000Y-130900000D02*
X81050000Y-130900000D01*
X78970000Y-130860000D02*
X77449000Y-130860000D01*
X82571000Y-130860000D02*
X81050000Y-130860000D01*
X78970000Y-130820000D02*
X77445000Y-130820000D01*
X82575000Y-130820000D02*
X81050000Y-130820000D01*
X78970000Y-130780000D02*
X77441000Y-130780000D01*
X82579000Y-130780000D02*
X81050000Y-130780000D01*
X78970000Y-130740000D02*
X77437000Y-130740000D01*
X82583000Y-130740000D02*
X81050000Y-130740000D01*
X78970000Y-130700000D02*
X77434000Y-130700000D01*
X82586000Y-130700000D02*
X81050000Y-130700000D01*
X78970000Y-130660000D02*
X77432000Y-130660000D01*
X82588000Y-130660000D02*
X81050000Y-130660000D01*
X78970000Y-130620000D02*
X77431000Y-130620000D01*
X82589000Y-130620000D02*
X81050000Y-130620000D01*
X82590000Y-130580000D02*
X81050000Y-130580000D01*
X78970000Y-130580000D02*
X77430000Y-130580000D01*
X82590000Y-130540000D02*
X81050000Y-130540000D01*
X78970000Y-130540000D02*
X77430000Y-130540000D01*
X82630000Y-130540000D02*
G75*
G03*
X82630000Y-130540000I-2620000J0D01*
G01*
%TO.C,C2*%
X88514000Y-126334759D02*
X87884000Y-126334759D01*
X88199000Y-126019759D02*
X88199000Y-126649759D01*
X86762000Y-132761000D02*
X85958000Y-132761000D01*
X86993000Y-132721000D02*
X85727000Y-132721000D01*
X87162000Y-132681000D02*
X85558000Y-132681000D01*
X87300000Y-132641000D02*
X85420000Y-132641000D01*
X87419000Y-132601000D02*
X85301000Y-132601000D01*
X87525000Y-132561000D02*
X85195000Y-132561000D01*
X87622000Y-132521000D02*
X85098000Y-132521000D01*
X87710000Y-132481000D02*
X85010000Y-132481000D01*
X87792000Y-132441000D02*
X84928000Y-132441000D01*
X87869000Y-132401000D02*
X84851000Y-132401000D01*
X87941000Y-132361000D02*
X84779000Y-132361000D01*
X88010000Y-132321000D02*
X84710000Y-132321000D01*
X88074000Y-132281000D02*
X84646000Y-132281000D01*
X88136000Y-132241000D02*
X84584000Y-132241000D01*
X88194000Y-132201000D02*
X84526000Y-132201000D01*
X88250000Y-132161000D02*
X84470000Y-132161000D01*
X88304000Y-132121000D02*
X84416000Y-132121000D01*
X88355000Y-132081000D02*
X84365000Y-132081000D01*
X88404000Y-132041000D02*
X84316000Y-132041000D01*
X88452000Y-132001000D02*
X84268000Y-132001000D01*
X88497000Y-131961000D02*
X84223000Y-131961000D01*
X88542000Y-131921000D02*
X84178000Y-131921000D01*
X88584000Y-131881000D02*
X84136000Y-131881000D01*
X88625000Y-131841000D02*
X84095000Y-131841000D01*
X85320000Y-131801000D02*
X84055000Y-131801000D01*
X88665000Y-131801000D02*
X87400000Y-131801000D01*
X85320000Y-131761000D02*
X84017000Y-131761000D01*
X88703000Y-131761000D02*
X87400000Y-131761000D01*
X85320000Y-131721000D02*
X83980000Y-131721000D01*
X88740000Y-131721000D02*
X87400000Y-131721000D01*
X85320000Y-131681000D02*
X83944000Y-131681000D01*
X88776000Y-131681000D02*
X87400000Y-131681000D01*
X85320000Y-131641000D02*
X83910000Y-131641000D01*
X88810000Y-131641000D02*
X87400000Y-131641000D01*
X85320000Y-131601000D02*
X83876000Y-131601000D01*
X88844000Y-131601000D02*
X87400000Y-131601000D01*
X85320000Y-131561000D02*
X83844000Y-131561000D01*
X88876000Y-131561000D02*
X87400000Y-131561000D01*
X85320000Y-131521000D02*
X83812000Y-131521000D01*
X88908000Y-131521000D02*
X87400000Y-131521000D01*
X85320000Y-131481000D02*
X83782000Y-131481000D01*
X88938000Y-131481000D02*
X87400000Y-131481000D01*
X85320000Y-131441000D02*
X83753000Y-131441000D01*
X88967000Y-131441000D02*
X87400000Y-131441000D01*
X85320000Y-131401000D02*
X83724000Y-131401000D01*
X88996000Y-131401000D02*
X87400000Y-131401000D01*
X85320000Y-131361000D02*
X83696000Y-131361000D01*
X89024000Y-131361000D02*
X87400000Y-131361000D01*
X85320000Y-131321000D02*
X83670000Y-131321000D01*
X89050000Y-131321000D02*
X87400000Y-131321000D01*
X85320000Y-131281000D02*
X83644000Y-131281000D01*
X89076000Y-131281000D02*
X87400000Y-131281000D01*
X85320000Y-131241000D02*
X83618000Y-131241000D01*
X89102000Y-131241000D02*
X87400000Y-131241000D01*
X85320000Y-131201000D02*
X83594000Y-131201000D01*
X89126000Y-131201000D02*
X87400000Y-131201000D01*
X85320000Y-131161000D02*
X83570000Y-131161000D01*
X89150000Y-131161000D02*
X87400000Y-131161000D01*
X85320000Y-131121000D02*
X83548000Y-131121000D01*
X89172000Y-131121000D02*
X87400000Y-131121000D01*
X85320000Y-131081000D02*
X83526000Y-131081000D01*
X89194000Y-131081000D02*
X87400000Y-131081000D01*
X85320000Y-131041000D02*
X83504000Y-131041000D01*
X89216000Y-131041000D02*
X87400000Y-131041000D01*
X85320000Y-131001000D02*
X83484000Y-131001000D01*
X89236000Y-131001000D02*
X87400000Y-131001000D01*
X85320000Y-130961000D02*
X83464000Y-130961000D01*
X89256000Y-130961000D02*
X87400000Y-130961000D01*
X85320000Y-130921000D02*
X83444000Y-130921000D01*
X89276000Y-130921000D02*
X87400000Y-130921000D01*
X85320000Y-130881000D02*
X83426000Y-130881000D01*
X89294000Y-130881000D02*
X87400000Y-130881000D01*
X85320000Y-130841000D02*
X83408000Y-130841000D01*
X89312000Y-130841000D02*
X87400000Y-130841000D01*
X85320000Y-130801000D02*
X83390000Y-130801000D01*
X89330000Y-130801000D02*
X87400000Y-130801000D01*
X85320000Y-130761000D02*
X83374000Y-130761000D01*
X89346000Y-130761000D02*
X87400000Y-130761000D01*
X85320000Y-130721000D02*
X83358000Y-130721000D01*
X89362000Y-130721000D02*
X87400000Y-130721000D01*
X85320000Y-130681000D02*
X83342000Y-130681000D01*
X89378000Y-130681000D02*
X87400000Y-130681000D01*
X85320000Y-130641000D02*
X83327000Y-130641000D01*
X89393000Y-130641000D02*
X87400000Y-130641000D01*
X85320000Y-130601000D02*
X83313000Y-130601000D01*
X89407000Y-130601000D02*
X87400000Y-130601000D01*
X85320000Y-130561000D02*
X83299000Y-130561000D01*
X89421000Y-130561000D02*
X87400000Y-130561000D01*
X85320000Y-130521000D02*
X83286000Y-130521000D01*
X89434000Y-130521000D02*
X87400000Y-130521000D01*
X85320000Y-130481000D02*
X83274000Y-130481000D01*
X89446000Y-130481000D02*
X87400000Y-130481000D01*
X85320000Y-130441000D02*
X83262000Y-130441000D01*
X89458000Y-130441000D02*
X87400000Y-130441000D01*
X85320000Y-130401000D02*
X83250000Y-130401000D01*
X89470000Y-130401000D02*
X87400000Y-130401000D01*
X85320000Y-130361000D02*
X83239000Y-130361000D01*
X89481000Y-130361000D02*
X87400000Y-130361000D01*
X85320000Y-130321000D02*
X83229000Y-130321000D01*
X89491000Y-130321000D02*
X87400000Y-130321000D01*
X85320000Y-130281000D02*
X83219000Y-130281000D01*
X89501000Y-130281000D02*
X87400000Y-130281000D01*
X85320000Y-130241000D02*
X83210000Y-130241000D01*
X89510000Y-130241000D02*
X87400000Y-130241000D01*
X85320000Y-130200000D02*
X83201000Y-130200000D01*
X89519000Y-130200000D02*
X87400000Y-130200000D01*
X85320000Y-130160000D02*
X83193000Y-130160000D01*
X89527000Y-130160000D02*
X87400000Y-130160000D01*
X85320000Y-130120000D02*
X83185000Y-130120000D01*
X89535000Y-130120000D02*
X87400000Y-130120000D01*
X85320000Y-130080000D02*
X83178000Y-130080000D01*
X89542000Y-130080000D02*
X87400000Y-130080000D01*
X85320000Y-130040000D02*
X83171000Y-130040000D01*
X89549000Y-130040000D02*
X87400000Y-130040000D01*
X85320000Y-130000000D02*
X83165000Y-130000000D01*
X89555000Y-130000000D02*
X87400000Y-130000000D01*
X85320000Y-129960000D02*
X83159000Y-129960000D01*
X89561000Y-129960000D02*
X87400000Y-129960000D01*
X85320000Y-129920000D02*
X83154000Y-129920000D01*
X89566000Y-129920000D02*
X87400000Y-129920000D01*
X85320000Y-129880000D02*
X83149000Y-129880000D01*
X89571000Y-129880000D02*
X87400000Y-129880000D01*
X85320000Y-129840000D02*
X83145000Y-129840000D01*
X89575000Y-129840000D02*
X87400000Y-129840000D01*
X85320000Y-129800000D02*
X83142000Y-129800000D01*
X89578000Y-129800000D02*
X87400000Y-129800000D01*
X85320000Y-129760000D02*
X83138000Y-129760000D01*
X89582000Y-129760000D02*
X87400000Y-129760000D01*
X89584000Y-129720000D02*
X83136000Y-129720000D01*
X89587000Y-129680000D02*
X83133000Y-129680000D01*
X89588000Y-129640000D02*
X83132000Y-129640000D01*
X89590000Y-129600000D02*
X83130000Y-129600000D01*
X89590000Y-129560000D02*
X83130000Y-129560000D01*
X89590000Y-129520000D02*
X83130000Y-129520000D01*
X89630000Y-129520000D02*
G75*
G03*
X89630000Y-129520000I-3270000J0D01*
G01*
%TO.C,D1*%
X97600000Y-112050000D02*
X97756000Y-112050000D01*
X95284000Y-112050000D02*
X95440000Y-112050000D01*
X95441392Y-108817665D02*
G75*
G03*
X95284484Y-112050000I1078608J-1672335D01*
G01*
X97598608Y-108817665D02*
G75*
G02*
X97755516Y-112050000I-1078608J-1672335D01*
G01*
X95440163Y-109448870D02*
G75*
G03*
X95440000Y-111530961I1079837J-1041130D01*
G01*
X97599837Y-109448870D02*
G75*
G02*
X97600000Y-111530961I-1079837J-1041130D01*
G01*
%TO.C,D2*%
X95440163Y-132105130D02*
G75*
G02*
X95440000Y-130023039I1079837J1041130D01*
G01*
X97599837Y-132105130D02*
G75*
G03*
X97600000Y-130023039I-1079837J1041130D01*
G01*
X95441392Y-132736335D02*
G75*
G02*
X95284484Y-129504000I1078608J1672335D01*
G01*
X97598608Y-132736335D02*
G75*
G03*
X97755516Y-129504000I-1078608J1672335D01*
G01*
X97756000Y-129504000D02*
X97600000Y-129504000D01*
X95440000Y-129504000D02*
X95284000Y-129504000D01*
D12*
%TO.C,Q1*%
X81610000Y-126810000D02*
X81310000Y-126960000D01*
X81610000Y-126510000D02*
X81610000Y-126810000D01*
X81610000Y-122110000D02*
X81610000Y-122410000D01*
X81610000Y-122110000D02*
X81310000Y-121960000D01*
D10*
X78460000Y-122510000D02*
G75*
G03*
X78410000Y-126360000I1900000J-1950000D01*
G01*
D11*
%TO.C,R2*%
X74906000Y-117062000D02*
X74576000Y-117062000D01*
X74576000Y-117062000D02*
X74576000Y-110522000D01*
X74576000Y-110522000D02*
X74906000Y-110522000D01*
X76986000Y-117062000D02*
X77316000Y-117062000D01*
X77316000Y-117062000D02*
X77316000Y-110522000D01*
X77316000Y-110522000D02*
X76986000Y-110522000D01*
%TO.C,R3*%
X88746000Y-110522000D02*
X88416000Y-110522000D01*
X88746000Y-117062000D02*
X88746000Y-110522000D01*
X88416000Y-117062000D02*
X88746000Y-117062000D01*
X86006000Y-110522000D02*
X86336000Y-110522000D01*
X86006000Y-117062000D02*
X86006000Y-110522000D01*
X86336000Y-117062000D02*
X86006000Y-117062000D01*
%TO.C,R4*%
X89892000Y-117062000D02*
X89562000Y-117062000D01*
X89562000Y-117062000D02*
X89562000Y-110522000D01*
X89562000Y-110522000D02*
X89892000Y-110522000D01*
X91972000Y-117062000D02*
X92302000Y-117062000D01*
X92302000Y-117062000D02*
X92302000Y-110522000D01*
X92302000Y-110522000D02*
X91972000Y-110522000D01*
%TO.C,R5*%
X90900000Y-124560000D02*
X90900000Y-124230000D01*
X84360000Y-124560000D02*
X90900000Y-124560000D01*
X84360000Y-124230000D02*
X84360000Y-124560000D01*
X90900000Y-121820000D02*
X90900000Y-122150000D01*
X84360000Y-121820000D02*
X90900000Y-121820000D01*
X84360000Y-122150000D02*
X84360000Y-121820000D01*
%TO.C,R6*%
X78386000Y-117062000D02*
X78716000Y-117062000D01*
X78386000Y-110522000D02*
X78386000Y-117062000D01*
X78716000Y-110522000D02*
X78386000Y-110522000D01*
X81126000Y-117062000D02*
X80796000Y-117062000D01*
X81126000Y-110522000D02*
X81126000Y-117062000D01*
X80796000Y-110522000D02*
X81126000Y-110522000D01*
%TO.C,R7*%
X84606000Y-110522000D02*
X84936000Y-110522000D01*
X84936000Y-110522000D02*
X84936000Y-117062000D01*
X84936000Y-117062000D02*
X84606000Y-117062000D01*
X82526000Y-110522000D02*
X82196000Y-110522000D01*
X82196000Y-110522000D02*
X82196000Y-117062000D01*
X82196000Y-117062000D02*
X82526000Y-117062000D01*
D12*
%TO.C,S1*%
X65210000Y-108540000D02*
X65210000Y-109040000D01*
X65210000Y-108540000D02*
X65710000Y-108540000D01*
X65210000Y-120440000D02*
X65710000Y-120440000D01*
X65210000Y-120440000D02*
X65210000Y-119940000D01*
X69410000Y-120440000D02*
X68910000Y-120440000D01*
X69410000Y-120440000D02*
X69410000Y-119940000D01*
X69410000Y-108540000D02*
X68910000Y-108540000D01*
X69410000Y-108540000D02*
X69410000Y-109040000D01*
D13*
%TO.C,U?1*%
X65786000Y-132588000D02*
G75*
G03*
X65786000Y-132588000I-254000J0D01*
G01*
D14*
X76200000Y-124714000D02*
X76200000Y-131826000D01*
X66040000Y-124714000D02*
X66040000Y-131826000D01*
%TO.C,R1*%
D10*
X71969333Y-108402380D02*
X71636000Y-107926190D01*
X71397904Y-108402380D02*
X71397904Y-107402380D01*
X71778857Y-107402380D01*
X71874095Y-107450000D01*
X71921714Y-107497619D01*
X71969333Y-107592857D01*
X71969333Y-107735714D01*
X71921714Y-107830952D01*
X71874095Y-107878571D01*
X71778857Y-107926190D01*
X71397904Y-107926190D01*
X72921714Y-108402380D02*
X72350285Y-108402380D01*
X72636000Y-108402380D02*
X72636000Y-107402380D01*
X72540761Y-107545238D01*
X72445523Y-107640476D01*
X72350285Y-107688095D01*
%TO.C,BAT1*%
X45013714Y-109910571D02*
X45156571Y-109958190D01*
X45204190Y-110005809D01*
X45251809Y-110101047D01*
X45251809Y-110243904D01*
X45204190Y-110339142D01*
X45156571Y-110386761D01*
X45061333Y-110434380D01*
X44680380Y-110434380D01*
X44680380Y-109434380D01*
X45013714Y-109434380D01*
X45108952Y-109482000D01*
X45156571Y-109529619D01*
X45204190Y-109624857D01*
X45204190Y-109720095D01*
X45156571Y-109815333D01*
X45108952Y-109862952D01*
X45013714Y-109910571D01*
X44680380Y-109910571D01*
X45632761Y-110148666D02*
X46108952Y-110148666D01*
X45537523Y-110434380D02*
X45870857Y-109434380D01*
X46204190Y-110434380D01*
X46394666Y-109434380D02*
X46966095Y-109434380D01*
X46680380Y-110434380D02*
X46680380Y-109434380D01*
X47823238Y-110434380D02*
X47251809Y-110434380D01*
X47537523Y-110434380D02*
X47537523Y-109434380D01*
X47442285Y-109577238D01*
X47347047Y-109672476D01*
X47251809Y-109720095D01*
%TO.C,C1*%
X81367333Y-134215142D02*
X81319714Y-134262761D01*
X81176857Y-134310380D01*
X81081619Y-134310380D01*
X80938761Y-134262761D01*
X80843523Y-134167523D01*
X80795904Y-134072285D01*
X80748285Y-133881809D01*
X80748285Y-133738952D01*
X80795904Y-133548476D01*
X80843523Y-133453238D01*
X80938761Y-133358000D01*
X81081619Y-133310380D01*
X81176857Y-133310380D01*
X81319714Y-133358000D01*
X81367333Y-133405619D01*
X82319714Y-134310380D02*
X81748285Y-134310380D01*
X82034000Y-134310380D02*
X82034000Y-133310380D01*
X81938761Y-133453238D01*
X81843523Y-133548476D01*
X81748285Y-133596095D01*
%TO.C,C2*%
X90003333Y-127103142D02*
X89955714Y-127150761D01*
X89812857Y-127198380D01*
X89717619Y-127198380D01*
X89574761Y-127150761D01*
X89479523Y-127055523D01*
X89431904Y-126960285D01*
X89384285Y-126769809D01*
X89384285Y-126626952D01*
X89431904Y-126436476D01*
X89479523Y-126341238D01*
X89574761Y-126246000D01*
X89717619Y-126198380D01*
X89812857Y-126198380D01*
X89955714Y-126246000D01*
X90003333Y-126293619D01*
X90384285Y-126293619D02*
X90431904Y-126246000D01*
X90527142Y-126198380D01*
X90765238Y-126198380D01*
X90860476Y-126246000D01*
X90908095Y-126293619D01*
X90955714Y-126388857D01*
X90955714Y-126484095D01*
X90908095Y-126626952D01*
X90336666Y-127198380D01*
X90955714Y-127198380D01*
%TO.C,D1*%
X95781904Y-107894380D02*
X95781904Y-106894380D01*
X96020000Y-106894380D01*
X96162857Y-106942000D01*
X96258095Y-107037238D01*
X96305714Y-107132476D01*
X96353333Y-107322952D01*
X96353333Y-107465809D01*
X96305714Y-107656285D01*
X96258095Y-107751523D01*
X96162857Y-107846761D01*
X96020000Y-107894380D01*
X95781904Y-107894380D01*
X97305714Y-107894380D02*
X96734285Y-107894380D01*
X97020000Y-107894380D02*
X97020000Y-106894380D01*
X96924761Y-107037238D01*
X96829523Y-107132476D01*
X96734285Y-107180095D01*
%TO.C,D2*%
X95527904Y-128214380D02*
X95527904Y-127214380D01*
X95766000Y-127214380D01*
X95908857Y-127262000D01*
X96004095Y-127357238D01*
X96051714Y-127452476D01*
X96099333Y-127642952D01*
X96099333Y-127785809D01*
X96051714Y-127976285D01*
X96004095Y-128071523D01*
X95908857Y-128166761D01*
X95766000Y-128214380D01*
X95527904Y-128214380D01*
X96480285Y-127309619D02*
X96527904Y-127262000D01*
X96623142Y-127214380D01*
X96861238Y-127214380D01*
X96956476Y-127262000D01*
X97004095Y-127309619D01*
X97051714Y-127404857D01*
X97051714Y-127500095D01*
X97004095Y-127642952D01*
X96432666Y-128214380D01*
X97051714Y-128214380D01*
%TO.C,Q1*%
X79914761Y-121451619D02*
X79819523Y-121404000D01*
X79724285Y-121308761D01*
X79581428Y-121165904D01*
X79486190Y-121118285D01*
X79390952Y-121118285D01*
X79438571Y-121356380D02*
X79343333Y-121308761D01*
X79248095Y-121213523D01*
X79200476Y-121023047D01*
X79200476Y-120689714D01*
X79248095Y-120499238D01*
X79343333Y-120404000D01*
X79438571Y-120356380D01*
X79629047Y-120356380D01*
X79724285Y-120404000D01*
X79819523Y-120499238D01*
X79867142Y-120689714D01*
X79867142Y-121023047D01*
X79819523Y-121213523D01*
X79724285Y-121308761D01*
X79629047Y-121356380D01*
X79438571Y-121356380D01*
X80819523Y-121356380D02*
X80248095Y-121356380D01*
X80533809Y-121356380D02*
X80533809Y-120356380D01*
X80438571Y-120499238D01*
X80343333Y-120594476D01*
X80248095Y-120642095D01*
%TO.C,R2*%
X75779333Y-108402380D02*
X75446000Y-107926190D01*
X75207904Y-108402380D02*
X75207904Y-107402380D01*
X75588857Y-107402380D01*
X75684095Y-107450000D01*
X75731714Y-107497619D01*
X75779333Y-107592857D01*
X75779333Y-107735714D01*
X75731714Y-107830952D01*
X75684095Y-107878571D01*
X75588857Y-107926190D01*
X75207904Y-107926190D01*
X76160285Y-107497619D02*
X76207904Y-107450000D01*
X76303142Y-107402380D01*
X76541238Y-107402380D01*
X76636476Y-107450000D01*
X76684095Y-107497619D01*
X76731714Y-107592857D01*
X76731714Y-107688095D01*
X76684095Y-107830952D01*
X76112666Y-108402380D01*
X76731714Y-108402380D01*
%TO.C,R3*%
X87209333Y-108402380D02*
X86876000Y-107926190D01*
X86637904Y-108402380D02*
X86637904Y-107402380D01*
X87018857Y-107402380D01*
X87114095Y-107450000D01*
X87161714Y-107497619D01*
X87209333Y-107592857D01*
X87209333Y-107735714D01*
X87161714Y-107830952D01*
X87114095Y-107878571D01*
X87018857Y-107926190D01*
X86637904Y-107926190D01*
X87542666Y-107402380D02*
X88161714Y-107402380D01*
X87828380Y-107783333D01*
X87971238Y-107783333D01*
X88066476Y-107830952D01*
X88114095Y-107878571D01*
X88161714Y-107973809D01*
X88161714Y-108211904D01*
X88114095Y-108307142D01*
X88066476Y-108354761D01*
X87971238Y-108402380D01*
X87685523Y-108402380D01*
X87590285Y-108354761D01*
X87542666Y-108307142D01*
%TO.C,R4*%
X90511333Y-108402380D02*
X90178000Y-107926190D01*
X89939904Y-108402380D02*
X89939904Y-107402380D01*
X90320857Y-107402380D01*
X90416095Y-107450000D01*
X90463714Y-107497619D01*
X90511333Y-107592857D01*
X90511333Y-107735714D01*
X90463714Y-107830952D01*
X90416095Y-107878571D01*
X90320857Y-107926190D01*
X89939904Y-107926190D01*
X91368476Y-107735714D02*
X91368476Y-108402380D01*
X91130380Y-107354761D02*
X90892285Y-108069047D01*
X91511333Y-108069047D01*
%TO.C,R5*%
X87463333Y-121272380D02*
X87130000Y-120796190D01*
X86891904Y-121272380D02*
X86891904Y-120272380D01*
X87272857Y-120272380D01*
X87368095Y-120320000D01*
X87415714Y-120367619D01*
X87463333Y-120462857D01*
X87463333Y-120605714D01*
X87415714Y-120700952D01*
X87368095Y-120748571D01*
X87272857Y-120796190D01*
X86891904Y-120796190D01*
X88368095Y-120272380D02*
X87891904Y-120272380D01*
X87844285Y-120748571D01*
X87891904Y-120700952D01*
X87987142Y-120653333D01*
X88225238Y-120653333D01*
X88320476Y-120700952D01*
X88368095Y-120748571D01*
X88415714Y-120843809D01*
X88415714Y-121081904D01*
X88368095Y-121177142D01*
X88320476Y-121224761D01*
X88225238Y-121272380D01*
X87987142Y-121272380D01*
X87891904Y-121224761D01*
X87844285Y-121177142D01*
%TO.C,R6*%
X79335333Y-108402380D02*
X79002000Y-107926190D01*
X78763904Y-108402380D02*
X78763904Y-107402380D01*
X79144857Y-107402380D01*
X79240095Y-107450000D01*
X79287714Y-107497619D01*
X79335333Y-107592857D01*
X79335333Y-107735714D01*
X79287714Y-107830952D01*
X79240095Y-107878571D01*
X79144857Y-107926190D01*
X78763904Y-107926190D01*
X80192476Y-107402380D02*
X80002000Y-107402380D01*
X79906761Y-107450000D01*
X79859142Y-107497619D01*
X79763904Y-107640476D01*
X79716285Y-107830952D01*
X79716285Y-108211904D01*
X79763904Y-108307142D01*
X79811523Y-108354761D01*
X79906761Y-108402380D01*
X80097238Y-108402380D01*
X80192476Y-108354761D01*
X80240095Y-108307142D01*
X80287714Y-108211904D01*
X80287714Y-107973809D01*
X80240095Y-107878571D01*
X80192476Y-107830952D01*
X80097238Y-107783333D01*
X79906761Y-107783333D01*
X79811523Y-107830952D01*
X79763904Y-107878571D01*
X79716285Y-107973809D01*
%TO.C,R7*%
X83399333Y-108402380D02*
X83066000Y-107926190D01*
X82827904Y-108402380D02*
X82827904Y-107402380D01*
X83208857Y-107402380D01*
X83304095Y-107450000D01*
X83351714Y-107497619D01*
X83399333Y-107592857D01*
X83399333Y-107735714D01*
X83351714Y-107830952D01*
X83304095Y-107878571D01*
X83208857Y-107926190D01*
X82827904Y-107926190D01*
X83732666Y-107402380D02*
X84399333Y-107402380D01*
X83970761Y-108402380D01*
%TO.C,S1*%
X66548095Y-108100761D02*
X66690952Y-108148380D01*
X66929047Y-108148380D01*
X67024285Y-108100761D01*
X67071904Y-108053142D01*
X67119523Y-107957904D01*
X67119523Y-107862666D01*
X67071904Y-107767428D01*
X67024285Y-107719809D01*
X66929047Y-107672190D01*
X66738571Y-107624571D01*
X66643333Y-107576952D01*
X66595714Y-107529333D01*
X66548095Y-107434095D01*
X66548095Y-107338857D01*
X66595714Y-107243619D01*
X66643333Y-107196000D01*
X66738571Y-107148380D01*
X66976666Y-107148380D01*
X67119523Y-107196000D01*
X68071904Y-108148380D02*
X67500476Y-108148380D01*
X67786190Y-108148380D02*
X67786190Y-107148380D01*
X67690952Y-107291238D01*
X67595714Y-107386476D01*
X67500476Y-107434095D01*
%TO.C,U?1*%
X69929523Y-122388380D02*
X69929523Y-123197904D01*
X69977142Y-123293142D01*
X70024761Y-123340761D01*
X70120000Y-123388380D01*
X70310476Y-123388380D01*
X70405714Y-123340761D01*
X70453333Y-123293142D01*
X70500952Y-123197904D01*
X70500952Y-122388380D01*
X71120000Y-123293142D02*
X71167619Y-123340761D01*
X71120000Y-123388380D01*
X71072380Y-123340761D01*
X71120000Y-123293142D01*
X71120000Y-123388380D01*
X70929523Y-122436000D02*
X71024761Y-122388380D01*
X71262857Y-122388380D01*
X71358095Y-122436000D01*
X71405714Y-122531238D01*
X71405714Y-122626476D01*
X71358095Y-122721714D01*
X71310476Y-122769333D01*
X71215238Y-122816952D01*
X71167619Y-122864571D01*
X71120000Y-122959809D01*
X71120000Y-123007428D01*
X72358095Y-123388380D02*
X71786666Y-123388380D01*
X72072380Y-123388380D02*
X72072380Y-122388380D01*
X71977142Y-122531238D01*
X71881904Y-122626476D01*
X71786666Y-122674095D01*
%TD*%
M02*
