%TF.GenerationSoftware,KiCad,Pcbnew,(5.1.12)-1*%
%TF.CreationDate,2021-12-23T01:28:27-05:00*%
%TF.ProjectId,555_Badge,3535355f-4261-4646-9765-2e6b69636164,v01*%
%TF.SameCoordinates,Original*%
%TF.FileFunction,Soldermask,Top*%
%TF.FilePolarity,Negative*%
%FSLAX46Y46*%
G04 Gerber Fmt 4.6, Leading zero omitted, Abs format (unit mm)*
G04 Created by KiCad (PCBNEW (5.1.12)-1) date 2021-12-23 01:28:27*
%MOMM*%
%LPD*%
G01*
G04 APERTURE LIST*
%ADD10C,1.600000*%
%ADD11O,1.600000X1.600000*%
%ADD12R,2.170000X2.170000*%
%ADD13C,2.500000*%
%ADD14R,1.600000X1.600000*%
%ADD15R,1.800000X1.800000*%
%ADD16C,1.800000*%
%ADD17O,1.500000X1.000000*%
%ADD18R,1.500000X1.000000*%
%ADD19R,1.900000X1.900000*%
%ADD20C,1.900000*%
%ADD21C,1.524000*%
G04 APERTURE END LIST*
D10*
%TO.C,R1*%
X72136000Y-109982000D03*
D11*
X72136000Y-117602000D03*
%TD*%
D12*
%TO.C,BAT1*%
X52578000Y-129540000D03*
D13*
X52578000Y-109540000D03*
%TD*%
D14*
%TO.C,C1*%
X80010000Y-129540000D03*
D10*
X80010000Y-131540000D03*
%TD*%
D14*
%TO.C,C2*%
X86360000Y-128270000D03*
D10*
X86360000Y-130770000D03*
%TD*%
D15*
%TO.C,D1*%
X96520000Y-111760000D03*
D16*
X96520000Y-109220000D03*
%TD*%
%TO.C,D2*%
X96520000Y-132334000D03*
D15*
X96520000Y-129794000D03*
%TD*%
D17*
%TO.C,Q1*%
X80010000Y-124460000D03*
X80010000Y-123190000D03*
D18*
X80010000Y-125730000D03*
%TD*%
D11*
%TO.C,R2*%
X75946000Y-109982000D03*
D10*
X75946000Y-117602000D03*
%TD*%
%TO.C,R3*%
X87376000Y-117602000D03*
D11*
X87376000Y-109982000D03*
%TD*%
%TO.C,R4*%
X90932000Y-109982000D03*
D10*
X90932000Y-117602000D03*
%TD*%
%TO.C,R5*%
X83820000Y-123190000D03*
D11*
X91440000Y-123190000D03*
%TD*%
D10*
%TO.C,R6*%
X79756000Y-109982000D03*
D11*
X79756000Y-117602000D03*
%TD*%
%TO.C,R7*%
X83566000Y-117602000D03*
D10*
X83566000Y-109982000D03*
%TD*%
D19*
%TO.C,S1*%
X67310000Y-116840000D03*
D20*
X67310000Y-114340000D03*
X67310000Y-111840000D03*
%TD*%
D21*
%TO.C,U?1*%
X67310000Y-124460000D03*
X69850000Y-124460000D03*
X72390000Y-124460000D03*
X74930000Y-124460000D03*
X67310000Y-132080000D03*
X69850000Y-132080000D03*
X72390000Y-132080000D03*
X74930000Y-132080000D03*
%TD*%
M02*
